<svg xmlns="http://www.w3.org/2000/svg" viewBox="0 0 100 100">
  <defs>
    <linearGradient id="bgGrad" x1="0%" y1="0%" x2="100%" y2="100%">
      <stop offset="0%" style="stop-color:#667eea;stop-opacity:1" />
      <stop offset="100%" style="stop-color:#764ba2;stop-opacity:1" />
    </linearGradient>
  </defs>
  <!-- Background Circle -->
  <circle cx="50" cy="50" r="48" fill="url(#bgGrad)"/>
  <!-- Brain/Mind Symbol -->
  <path d="M50 20c-16.5 0-30 13.5-30 30s13.5 30 30 30 30-13.5 30-30-13.5-30-30-30zm0 54c-13.2 0-24-10.8-24-24s10.8-24 24-24 24 10.8 24 24-10.8 24-24 24z" fill="#fff" opacity="0.3"/>
  <!-- Four Ears Symbol (stylized) -->
  <g fill="#fff">
    <!-- Top ear -->
    <ellipse cx="50" cy="32" rx="8" ry="10"/>
    <!-- Bottom ear -->
    <ellipse cx="50" cy="68" rx="8" ry="10"/>
    <!-- Left ear -->
    <ellipse cx="32" cy="50" rx="10" ry="8"/>
    <!-- Right ear -->
    <ellipse cx="68" cy="50" rx="10" ry="8"/>
    <!-- Center -->
    <circle cx="50" cy="50" r="12" fill="#667eea"/>
    <circle cx="50" cy="50" r="8" fill="#fff"/>
  </g>
</svg>
